<svg width="40" height="40" xmlns="http://www.w3.org/2000/svg">
 <defs>
  <linearGradient y2="0" x2="1" y1="0" x1="0" id="svg_21">
   <stop offset="0" stop-opacity="0.99609" stop-color="#95f74f"/>
   <stop offset="1" stop-opacity="0.99609" stop-color="#2dbfef"/>
  </linearGradient>
 </defs>
 <g>
  <title>Layer 1</title>
  <path stroke-dasharray="2,2" stroke="#000" id="svg_12" d="m1.95802,20l3.44571,-10.7911l9.02094,-6.66935l11.15067,0l9.021,6.66935l3.44565,10.7911l-3.44565,10.7911l-9.021,6.66935l-11.15067,0l-9.02094,-6.66935l-3.44571,-10.7911z" stroke-width="0" fill="url(#svg_21)"/>
  <text transform="matrix(0.960248 0 0 0.964151 1.50834 0.964148)" stroke="#000" xml:space="preserve" text-anchor="start" font-family="Noto Sans JP" font-size="24" id="svg_4" y="28.57206" x="3.76233" stroke-width="0" fill="#000000">OL</text>
  <path stroke="#000" id="svg_5" d="m19.66401,31.57187c-0.3097,0.13623 -0.73234,0.45429 -1.05963,0.33792c-0.21468,-0.07532 -0.3403,-0.50181 -0.47368,-0.7263c-1.00402,-1.68755 -2.09521,-3.60696 -2.88945,-5.24905c0,-0.07326 -0.04561,-0.1299 0.02216,-0.2295c-0.44429,-0.617 -0.74588,-1.2949 -1.23129,-1.98148c-0.15373,-0.21817 -0.31013,-0.52094 -0.52576,-0.60818l-0.39825,-0.14182c-0.50628,-0.11107 -0.87607,-0.10725 -1.22905,0.18242c-0.17899,0.1477 -0.26133,0.39132 -0.43446,0.538c-0.11708,0.10018 -0.56318,0.3466 -0.72906,0.3085c-0.1289,-0.02972 -0.23512,-0.14049 -0.32548,-0.28084l-0.31462,-0.49592c-0.0882,-0.14108 -0.13838,-0.27687 -0.09725,-0.38529c0.05294,-0.13961 0.53887,-0.32395 0.70157,-0.35278c0.23874,-0.04369 0.52171,0.03119 0.76484,-0.01589c0.47783,-0.09371 0.68398,-0.35558 0.85124,-0.77897c1.17887,-0.59125 2.76599,-0.97566 4.61392,-0.47974c0.50127,0.13461 0.98178,0.23671 1.3113,0.5102c0.06604,0.15888 -0.06458,0.19051 -0.20158,0.1886c0.10717,0.08327 0.28029,0.13152 0.18037,0.32704c-1.12783,-0.44193 -3.31796,-0.59464 -3.46668,0.30997c-0.03251,0.2014 0.17856,0.47871 0.30832,0.70777c0.40911,0.72263 0.909,1.30888 1.27155,1.96339c0.13476,0.00647 0.16545,0.06929 0.23736,0.11063c1.17706,1.46541 2.46405,3.2939 3.57101,4.93408c0.14743,0.21817 0.49636,0.54065 0.453,0.73498c-0.0651,0.29732 -0.60077,0.43576 -0.91039,0.57228l0,0z" stroke-width="0" fill="#000000"/>
 </g>
</svg>